<svg width="441px" height="307px" viewBox="0 0 441 307" version="1.1" xmlns="http://www.w3.org/2000/svg" xmlns:xlink="http://www.w3.org/1999/xlink">
    <g id="Page-1" stroke="none" stroke-width="1" fill="none" fill-rule="evenodd">
        <g id="Tablet" transform="translate(-175.000000, -323.000000)">
            <path d="M244.4,323.6 L244.4,340.2 C230.6,340.2 220.6,343.4 221.8,354.8 L225.4,391.6 C227.4,410.4 218.4,418.2 202.2,421 C219,423.8 227.4,431 225.4,450.4 L221.8,487.2 C220.6,498.8 230.8,501.8 244.4,501.8 L244.4,518.4 C216.6,518.4 198.4,510.6 201,485.2 L204.8,450.6 C206.2,436.4 198.8,430 175.6,430 L175.6,412 C198.6,412 206.2,405.8 204.8,391.6 L201,357 C198.4,331.4 216.6,323.6 244.4,323.6 Z" id="{" fill="{{{ hex 'first' }}}"></path>
            <path d="M546.6,323.6 C574.4,323.6 592.6,331.4 590,356.8 L586.2,391.6 C584.8,405.8 593.8,412 615.4,412 L615.4,430 C593.8,430 584.8,436.4 586.2,450.6 L590,485 C592.6,510.6 574.4,518.4 546.6,518.4 L546.6,501.8 C560.4,501.8 570.4,498.8 569.2,487.2 L565.6,450.4 C563.6,431 572.4,423.8 590.2,421.2 C572.4,418.2 563.6,410.6 565.6,391.6 L569.2,354.8 C570.4,343.4 560.2,340.2 546.6,340.2 L546.6,323.6 Z" id="}" fill="{{{ hex 'first' }}}"></path>
            <path d="M278.5,537.5 L513.5,537.5" id="Line" stroke="{{{ hex 'second' }}}" stroke-linecap="square"></path>
            <g id="Laracasts-(rainglow)" transform="translate(315.000000, 549.000000)" fill-rule="nonzero">
                <g id="Shape" transform="translate(81.000000, 40.500000) scale(-1, 1) rotate(-180.000000) translate(-81.000000, -40.500000) ">
                    <path d="M9.40481151,80.9680727 C11.4513019,80.9680727 13.1460518,79.3716989 13.241981,77.3283405 C15.1285894,41.6014978 44.7707242,13.2499015 81,13.2499015 C117.229276,13.2499015 146.839434,41.6334253 148.758019,77.3283405 C148.853948,79.3716989 150.548698,80.9680727 152.595188,80.9680727 L158.127108,80.9680727 C160.33348,80.9680727 162.092183,79.1162792 161.996254,76.9132832 C159.885811,34.0985416 124.455945,0 81.0319766,0 C37.5760313,0.0319274734 2.11418935,34.0985416 0.00374609547,76.945211 C-0.0921831434,79.1482066 1.66651957,81 3.87289206,81 L9.40481151,81 L9.40481151,80.9680727 Z" fill="{{{ hex 'first' }}}"></path>
                    <path d="M137.794264,81 C139.620231,81 141.093819,79.4695808 140.965681,77.6522076 C139.139714,47.0119348 112.390891,21.4411765 81.2533408,21.4411765 C50.1157896,21.4411765 23.3669675,46.980051 21.5089655,77.6522076 C21.4128619,79.4695808 22.8544152,81 24.6803827,81 L29.2613187,81 C30.9271136,81 32.3045979,79.7246502 32.4007014,78.066696 C33.9383583,52.5597055 55.2092779,32.3454151 81.2213059,32.3454151 C107.233334,32.3454151 128.504254,52.5597055 130.041911,78.066696 C130.138014,79.7246502 131.515499,81 133.181293,81 L137.794264,81 Z" fill="{{{ hex 'second' }}}"></path>
                    <path d="M119.455111,81 C120.861589,81 121.948413,79.8228808 121.852517,78.4548776 C120.541935,57.0122216 102.641307,40.0235294 80.7769685,40.0235294 C58.9126304,40.0235294 41.0120024,57.0122216 39.6694553,78.4548776 C39.5735591,79.8228808 40.6923483,81 42.0668608,81 L45.3912631,81 C46.637914,81 47.6927724,80.013765 47.7886686,78.7730179 C48.8435271,60.9889753 62.4927559,48.1042929 80.7769685,48.1042929 C99.0611817,48.1042929 112.71041,60.9571613 113.765269,78.7730179 C113.8292,80.013765 114.884058,81 116.162674,81 L119.455111,81 Z" fill="{{{ hex 'third' }}}"></path>
                    <path d="M107.415817,81 C108.279845,81 109.01587,80.2987582 108.951868,79.4062693 C108.11984,64.871443 96.0554351,53.3647059 81.2389381,53.3647059 C66.454442,53.3647059 54.3580362,64.9033179 53.5260081,79.4062693 C53.4620061,80.2668838 54.1980309,81 55.0620596,81 L57.8781543,81 C58.710182,81 59.3822048,80.3306332 59.4142058,79.5018931 C60.0862282,67.5170364 68.9185246,59.2296357 81.2389381,59.2296357 C93.5593515,59.2296357 102.391648,67.5170364 103.06367,79.5018931 C103.095671,80.3306332 103.767694,81 104.599722,81 L107.415817,81 Z" fill="{{{ hex 'first' }}}"></path>
                    <path d="M67.7470744,81 C68.3545247,81 68.8340905,80.5226456 68.8660614,79.9179963 C69.2816856,73.2350322 73.789606,69.1297831 80.7592981,69.1297831 C87.7289907,69.1297831 92.2049398,73.2350322 92.6525348,79.9179963 C92.6845057,80.5226456 93.1640715,81 93.7715218,81 L96.8087733,81 C97.4481945,81 98.0236739,80.4589981 97.9597317,79.8225254 C97.4481945,71.5483792 91.4696051,63.8470588 80.7592981,63.8470588 C70.8162967,63.8470588 64.1663148,71.5165557 63.5588645,79.7907019 C63.5268936,80.4271747 64.0704017,81 64.7098229,81 L67.7470744,81 Z" fill="{{{ hex 'second' }}}"></path>
                </g>
            </g>
            <path d="M292.636719,352.210938 L292.636719,356.78125 C292.011716,356.015621 291.261723,355.632812 290.386719,355.632812 C287.917956,355.632812 286.683594,358.304661 286.683594,363.648438 C286.683594,369.320341 287.910144,372.15625 290.363281,372.15625 C291.050785,372.15625 291.80859,371.851566 292.636719,371.242188 L292.636719,375.4375 C291.449213,376.062503 290.2461,376.375 289.027344,376.375 C284.21482,376.375 281.808594,372.281291 281.808594,364.09375 C281.808594,359.734353 282.402338,356.519542 283.589844,354.449219 C284.77735,352.378896 286.621081,351.34375 289.121094,351.34375 C290.324225,351.34375 291.496088,351.63281 292.636719,352.210938 Z M301.433594,351.742188 L305.910156,351.742188 L305.910156,354.765625 C306.675785,353.484369 307.43359,352.58594 308.183594,352.070312 C308.933598,351.554685 309.925775,351.257813 311.160156,351.179688 L311.160156,355.867188 C310.847655,355.820312 310.582032,355.796875 310.363281,355.796875 C308.753898,355.796875 307.605472,356.210933 306.917969,357.039062 C306.24609,357.851567 305.910156,359.273427 305.910156,361.304688 L305.910156,376 L301.433594,376 L301.433594,351.742188 Z M328.769531,367.820312 L332.941406,367.820312 C332.61328,373.523466 330.269553,376.375 325.910156,376.375 C324.613275,376.375 323.500005,376.132815 322.570312,375.648438 C321.64062,375.16406 320.871097,374.414068 320.261719,373.398438 C319.652341,372.382807 319.203126,371.093758 318.914062,369.53125 C318.624999,367.968742 318.480469,366.109386 318.480469,363.953125 C318.480469,359.671854 319.078119,356.50001 320.273438,354.4375 C321.468756,352.37499 323.316394,351.34375 325.816406,351.34375 C330.675806,351.34375 333.105469,355.624957 333.105469,364.1875 L333.105469,364.75 L322.863281,364.75 C322.863281,369.937526 323.894521,372.53125 325.957031,372.53125 C327.832041,372.53125 328.769531,370.960953 328.769531,367.820312 Z M328.535156,361.515625 C328.347655,358.968737 328.058596,357.296879 327.667969,356.5 C327.261717,355.609371 326.605473,355.164062 325.699219,355.164062 C324.777339,355.164062 324.121096,355.609371 323.730469,356.5 C323.339842,357.296879 323.050782,358.968737 322.863281,361.515625 L328.535156,361.515625 Z M355.941406,351.742188 L355.941406,376 L351.464844,376 L351.464844,372.882812 C350.824216,374.210944 350.183597,375.124998 349.542969,375.625 C348.902341,376.125002 348.058599,376.375 347.011719,376.375 C344.996084,376.375 343.519536,375.34376 342.582031,373.28125 C341.644527,371.21874 341.175781,367.984397 341.175781,363.578125 C341.175781,359.374979 341.644527,356.285166 342.582031,354.308594 C343.519536,352.332021 344.996084,351.34375 347.011719,351.34375 C348.855478,351.34375 350.339838,352.390615 351.464844,354.484375 L351.464844,351.742188 L355.941406,351.742188 Z M345.816406,363.765625 C345.816406,366.953141 346.027342,369.179681 346.449219,370.445312 C346.886721,371.710944 347.652338,372.34375 348.746094,372.34375 C349.746099,372.34375 350.472654,371.687507 350.925781,370.375 C351.378909,368.968743 351.605469,366.804702 351.605469,363.882812 C351.605469,360.945298 351.378909,358.773445 350.925781,357.367188 C350.472654,356.054681 349.746099,355.398438 348.746094,355.398438 C347.683588,355.398438 346.925784,356.023431 346.472656,357.273438 C346.035154,358.429693 345.816406,360.593734 345.816406,363.765625 Z M366.566406,344.945312 L371.042969,344.945312 L371.042969,351.742188 L373.480469,351.742188 L373.480469,355.304688 L371.042969,355.304688 L371.042969,376 L366.566406,376 L366.566406,355.304688 L364.105469,355.304688 L364.105469,351.742188 L366.566406,351.742188 L366.566406,344.945312 Z M391.019531,367.820312 L395.191406,367.820312 C394.86328,373.523466 392.519553,376.375 388.160156,376.375 C386.863275,376.375 385.750005,376.132815 384.820312,375.648438 C383.89062,375.16406 383.121097,374.414068 382.511719,373.398438 C381.902341,372.382807 381.453126,371.093758 381.164062,369.53125 C380.874999,367.968742 380.730469,366.109386 380.730469,363.953125 C380.730469,359.671854 381.328119,356.50001 382.523438,354.4375 C383.718756,352.37499 385.566394,351.34375 388.066406,351.34375 C392.925806,351.34375 395.355469,355.624957 395.355469,364.1875 L395.355469,364.75 L385.113281,364.75 C385.113281,369.937526 386.144521,372.53125 388.207031,372.53125 C390.082041,372.53125 391.019531,370.960953 391.019531,367.820312 Z M390.785156,361.515625 C390.597655,358.968737 390.308596,357.296879 389.917969,356.5 C389.511717,355.609371 388.855473,355.164062 387.949219,355.164062 C387.027339,355.164062 386.371096,355.609371 385.980469,356.5 C385.589842,357.296879 385.300782,358.968737 385.113281,361.515625 L390.785156,361.515625 Z" id="create" fill="{{{ hex 'second' }}}"></path>
            <path d="M433.124,363.616 C433.124,364.416004 433.267999,365.159997 433.556,365.848 C433.844001,366.536003 434.235998,367.135997 434.732,367.648 C435.228002,368.160003 435.819997,368.559999 436.508,368.848 C437.196003,369.136001 437.939996,369.28 438.74,369.28 C439.508004,369.28 440.235997,369.136001 440.924,368.848 C441.612003,368.559999 442.203998,368.160003 442.7,367.648 C443.196002,367.135997 443.595998,366.544003 443.9,365.872 C444.204002,365.199997 444.356,364.480004 444.356,363.712 C444.356,362.943996 444.204002,362.216003 443.9,361.528 C443.595998,360.839997 443.196002,360.240003 442.7,359.728 C442.203998,359.215997 441.612003,358.816001 440.924,358.528 C440.235997,358.239999 439.508004,358.096 438.74,358.096 C437.939996,358.096 437.196003,358.239999 436.508,358.528 C435.819997,358.816001 435.228002,359.215997 434.732,359.728 C434.235998,360.240003 433.844001,360.823997 433.556,361.48 C433.267999,362.136003 433.124,362.847996 433.124,363.616 Z M444.068,351.376 L452.804,351.376 L452.804,376 L444.068,376 L444.068,373.264 C442.211991,375.600012 439.700016,376.768 436.532,376.768 C434.739991,376.768 433.092008,376.440003 431.588,375.784 C430.083992,375.127997 428.772006,374.208006 427.652,373.024 C426.531994,371.839994 425.660003,370.448008 425.036,368.848 C424.411997,367.247992 424.1,365.504009 424.1,363.616 C424.1,361.855991 424.403997,360.184008 425.012,358.6 C425.620003,357.015992 426.467995,355.632006 427.556,354.448 C428.644005,353.263994 429.939992,352.328003 431.444,351.64 C432.948008,350.951997 434.611991,350.608 436.436,350.608 C439.508015,350.608 442.05199,351.679989 444.068,353.824 L444.068,351.376 Z M463.708,351.376 L472.396,351.376 L472.396,355.408 C473.324005,353.935993 474.459993,352.808004 475.804,352.024 C477.148007,351.239996 478.715991,350.848 480.508,350.848 L481.252,350.848 C481.524001,350.848 481.835998,350.88 482.188,350.944 L482.188,359.248 C481.035994,358.671997 479.788007,358.384 478.444,358.384 C476.42799,358.384 474.916005,358.983994 473.908,360.184 C472.899995,361.384006 472.396,363.135988 472.396,365.44 L472.396,376 L463.708,376 L463.708,351.376 Z M501.684,358.624 L501.684,376 L492.996,376 L492.996,358.624 L490.116,358.624 L490.116,351.376 L492.996,351.376 L492.996,343.984 L501.684,343.984 L501.684,351.376 L506.628,351.376 L506.628,358.624 L501.684,358.624 Z" id="art" fill="{{{ hex 'first' }}}"></path>
            <path d="M288.62,425.76 C288.62,424.991996 288.476001,424.264003 288.188,423.576 C287.899999,422.887997 287.500003,422.288003 286.988,421.776 C286.475997,421.263997 285.884003,420.856002 285.212,420.552 C284.539997,420.247998 283.804004,420.096 283.004,420.096 C282.235996,420.096 281.516003,420.239999 280.844,420.528 C280.171997,420.816001 279.588002,421.215997 279.092,421.728 C278.595998,422.240003 278.196002,422.839997 277.892,423.528 C277.587998,424.216003 277.436,424.943996 277.436,425.712 C277.436,426.480004 277.579999,427.199997 277.868,427.872 C278.156001,428.544003 278.555997,429.127998 279.068,429.624 C279.580003,430.120002 280.179997,430.519998 280.868,430.824 C281.556003,431.128002 282.283996,431.28 283.052,431.28 C283.820004,431.28 284.539997,431.136001 285.212,430.848 C285.884003,430.559999 286.467998,430.160003 286.964,429.648 C287.460002,429.135997 287.859998,428.544003 288.164,427.872 C288.468002,427.199997 288.62,426.496004 288.62,425.76 Z M277.676,398.16 L277.676,415.824 C279.72401,413.679989 282.283985,412.608 285.356,412.608 C287.180009,412.608 288.851992,412.951997 290.372,413.64 C291.892008,414.328003 293.187995,415.255994 294.26,416.424 C295.332005,417.592006 296.171997,418.967992 296.78,420.552 C297.388003,422.136008 297.692,423.823991 297.692,425.616 C297.692,427.440009 297.380003,429.151992 296.756,430.752 C296.131997,432.352008 295.260006,433.743994 294.14,434.928 C293.019994,436.112006 291.700008,437.047997 290.18,437.736 C288.659992,438.424003 287.020009,438.768 285.26,438.768 C282.059984,438.768 279.532009,437.600012 277.676,435.264 L277.676,438 L268.988,438 L268.988,398.16 L277.676,398.16 Z M325.636,422.112 C325.347999,420.895994 324.756004,419.920004 323.86,419.184 C322.963996,418.447996 321.876006,418.08 320.596,418.08 C319.251993,418.08 318.156004,418.431996 317.308,419.136 C316.459996,419.840004 315.924001,420.831994 315.7,422.112 L325.636,422.112 Z M315.46,427.152 C315.46,430.896019 317.219982,432.768 320.74,432.768 C322.628009,432.768 324.051995,432.000008 325.012,430.464 L333.412,430.464 C331.715992,436.096028 327.476034,438.912 320.692,438.912 C318.61199,438.912 316.708009,438.600003 314.98,437.976 C313.251991,437.351997 311.772006,436.464006 310.54,435.312 C309.307994,434.159994 308.356003,432.784008 307.684,431.184 C307.011997,429.583992 306.676,427.79201 306.676,425.808 C306.676,423.75999 306.995997,421.912008 307.636,420.264 C308.276003,418.615992 309.187994,417.216006 310.372,416.064 C311.556006,414.911994 312.987992,414.024003 314.668,413.4 C316.348008,412.775997 318.243989,412.464 320.356,412.464 C322.43601,412.464 324.307992,412.775997 325.972,413.4 C327.636008,414.024003 329.043994,414.927994 330.196,416.112 C331.348006,417.296006 332.227997,418.743991 332.836,420.456 C333.444003,422.168009 333.748,424.095989 333.748,426.24 L333.748,427.152 L315.46,427.152 Z M353.724,420.624 L353.724,438 L345.036,438 L345.036,420.624 L342.156,420.624 L342.156,413.376 L345.036,413.376 L345.036,405.984 L353.724,405.984 L353.724,413.376 L358.668,413.376 L358.668,420.624 L353.724,420.624 Z M373.652,413.376 L379.556,426.336 L385.7,413.376 L391.172,413.376 L397.316,426.72 L403.508,413.376 L413.156,413.376 L400.292,438 L394.484,438 L388.34,424.512 L382.484,438 L376.58,438 L363.956,413.376 L373.652,413.376 Z M437.98,422.112 C437.691999,420.895994 437.100004,419.920004 436.204,419.184 C435.307996,418.447996 434.220006,418.08 432.94,418.08 C431.595993,418.08 430.500004,418.431996 429.652,419.136 C428.803996,419.840004 428.268001,420.831994 428.044,422.112 L437.98,422.112 Z M427.804,427.152 C427.804,430.896019 429.563982,432.768 433.084,432.768 C434.972009,432.768 436.395995,432.000008 437.356,430.464 L445.756,430.464 C444.059992,436.096028 439.820034,438.912 433.036,438.912 C430.95599,438.912 429.052009,438.600003 427.324,437.976 C425.595991,437.351997 424.116006,436.464006 422.884,435.312 C421.651994,434.159994 420.700003,432.784008 420.028,431.184 C419.355997,429.583992 419.02,427.79201 419.02,425.808 C419.02,423.75999 419.339997,421.912008 419.98,420.264 C420.620003,418.615992 421.531994,417.216006 422.716,416.064 C423.900006,414.911994 425.331992,414.024003 427.012,413.4 C428.692008,412.775997 430.587989,412.464 432.7,412.464 C434.78001,412.464 436.651992,412.775997 438.316,413.4 C439.980008,414.024003 441.387994,414.927994 442.54,416.112 C443.692006,417.296006 444.571997,418.743991 445.18,420.456 C445.788003,422.168009 446.092,424.095989 446.092,426.24 L446.092,427.152 L427.804,427.152 Z M474.036,422.112 C473.747999,420.895994 473.156004,419.920004 472.26,419.184 C471.363996,418.447996 470.276006,418.08 468.996,418.08 C467.651993,418.08 466.556004,418.431996 465.708,419.136 C464.859996,419.840004 464.324001,420.831994 464.1,422.112 L474.036,422.112 Z M463.86,427.152 C463.86,430.896019 465.619982,432.768 469.14,432.768 C471.028009,432.768 472.451995,432.000008 473.412,430.464 L481.812,430.464 C480.115992,436.096028 475.876034,438.912 469.092,438.912 C467.01199,438.912 465.108009,438.600003 463.38,437.976 C461.651991,437.351997 460.172006,436.464006 458.94,435.312 C457.707994,434.159994 456.756003,432.784008 456.084,431.184 C455.411997,429.583992 455.076,427.79201 455.076,425.808 C455.076,423.75999 455.395997,421.912008 456.036,420.264 C456.676003,418.615992 457.587994,417.216006 458.772,416.064 C459.956006,414.911994 461.387992,414.024003 463.068,413.4 C464.748008,412.775997 466.643989,412.464 468.756,412.464 C470.83601,412.464 472.707992,412.775997 474.372,413.4 C476.036008,414.024003 477.443994,414.927994 478.596,416.112 C479.748006,417.296006 480.627997,418.743991 481.236,420.456 C481.844003,422.168009 482.148,424.095989 482.148,426.24 L482.148,427.152 L463.86,427.152 Z M492.092,413.376 L500.78,413.376 L500.78,416.496 C501.964006,415.055993 503.163994,414.088002 504.38,413.592 C505.596006,413.095998 507.019992,412.848 508.652,412.848 C510.380009,412.848 511.859994,413.127997 513.092,413.688 C514.324006,414.248003 515.371996,415.039995 516.236,416.064 C516.940004,416.896004 517.419999,417.823995 517.676,418.848 C517.932001,419.872005 518.06,421.039993 518.06,422.352 L518.06,438 L509.372,438 L509.372,425.568 C509.372,424.351994 509.284001,423.368004 509.108,422.616 C508.931999,421.863996 508.620002,421.264002 508.172,420.816 C507.787998,420.431998 507.356002,420.160001 506.876,420 C506.395998,419.839999 505.884003,419.76 505.34,419.76 C503.867993,419.76 502.740004,420.199996 501.956,421.08 C501.171996,421.960004 500.78,423.215992 500.78,424.848 L500.78,438 L492.092,438 L492.092,413.376 Z" id="between" fill="{{{ hex 'second' }}}"></path>
            <path d="M273.777344,482.726562 L271.644531,500 L266.464844,500 L268.597656,482.726562 L265.667969,482.726562 L266.253906,477.921875 L269.183594,477.921875 L270.449219,467.679688 L275.628906,467.679688 L274.363281,477.921875 L279.144531,477.921875 L278.558594,482.726562 L273.777344,482.726562 Z M295.722656,460.414062 L293.332031,479.796875 C295.410167,478.187492 297.519521,477.382812 299.660156,477.382812 C301.816417,477.382812 303.53515,477.953119 304.816406,479.09375 C306.144538,480.218756 306.808594,481.695303 306.808594,483.523438 C306.808594,483.96094 306.785156,484.457028 306.738281,485.011719 C306.691406,485.566409 306.628907,486.195309 306.550781,486.898438 L304.933594,500 L299.753906,500 L301.394531,486.617188 C301.488282,485.898434 301.535156,485.250003 301.535156,484.671875 C301.535156,482.703115 300.378918,481.71875 298.066406,481.71875 C294.75389,481.71875 292.824221,483.960915 292.277344,488.445312 L290.847656,500 L285.667969,500 L290.542969,460.414062 L295.722656,460.414062 Z M322.472656,490.8125 C322.472656,492.437508 323.035151,493.773432 324.160156,494.820312 C325.300787,495.867193 326.753897,496.390625 328.519531,496.390625 C330.941418,496.390625 332.800775,495.484384 334.097656,493.671875 L337.964844,495.804688 C336.621087,497.617197 335.238288,498.882809 333.816406,499.601562 C332.378899,500.335941 330.582042,500.703125 328.425781,500.703125 C325.003889,500.703125 322.277354,499.695323 320.246094,497.679688 C318.214834,495.664052 317.199219,492.968767 317.199219,489.59375 C317.199219,486.062482 318.316395,483.109387 320.550781,480.734375 C322.769542,478.374988 325.574202,477.195312 328.964844,477.195312 C332.24611,477.195312 334.832022,478.257802 336.722656,480.382812 C338.644541,482.523448 339.605469,485.390607 339.605469,488.984375 C339.605469,489.359377 339.582031,489.968746 339.535156,490.8125 L322.472656,490.8125 Z M334.355469,486.640625 C333.808591,483.234358 331.925797,481.53125 328.707031,481.53125 C325.660141,481.53125 323.675786,483.234358 322.753906,486.640625 L334.355469,486.640625 Z" id="the" fill="{{{ hex 'third' }}}"></path>
            <path d="M377.792969,500 L368.183594,500 L368.183594,460.414062 L377.582031,460.414062 L377.582031,474.289062 C377.582031,475.460943 377.535157,476.80468 377.441406,478.320312 C378.300786,476.789055 379.167964,475.703128 380.042969,475.0625 C380.949223,474.437497 382.089837,474.125 383.464844,474.125 C386.027357,474.125 388.011712,475.304676 389.417969,477.664062 C390.824226,480.007824 391.527344,483.312479 391.527344,487.578125 C391.527344,491.65627 390.800789,494.828114 389.347656,497.09375 C387.910149,499.375011 385.917981,500.515625 383.371094,500.515625 C382.136713,500.515625 381.089848,500.234378 380.230469,499.671875 C379.808592,499.374999 379.375002,498.976565 378.929688,498.476562 C378.484373,497.97656 378.035159,497.351566 377.582031,496.601562 C377.597656,496.898439 377.613281,497.152343 377.628906,497.363281 C377.644531,497.57422 377.660156,497.749999 377.675781,497.890625 L377.792969,500 Z M381.800781,487.367188 C381.800781,483.742169 381.003914,481.929688 379.410156,481.929688 C378.003899,481.929688 377.300781,483.640608 377.300781,487.0625 C377.300781,490.640643 378.027336,492.429688 379.480469,492.429688 C381.027351,492.429688 381.800781,490.742204 381.800781,487.367188 Z M409.535156,500 L400.136719,500 L400.136719,474.664062 L409.535156,474.664062 L409.042969,479.609375 C410.464851,475.906231 412.81639,474.054688 416.097656,474.054688 L416.097656,484.601562 C415.066401,484.03906 414.19141,483.757812 413.472656,483.757812 C412.207025,483.757812 411.234378,484.214839 410.554688,485.128906 C409.874997,486.042973 409.535156,487.374991 409.535156,489.125 L409.535156,500 Z M446.855469,500 L437.433594,500 C437.511719,499.156246 437.574219,498.351566 437.621094,497.585938 C437.667969,496.820309 437.714844,496.203127 437.761719,495.734375 C436.136711,498.921891 433.957045,500.515625 431.222656,500.515625 C428.847644,500.515625 426.964851,499.328137 425.574219,496.953125 C424.199212,494.593738 423.511719,491.328146 423.511719,487.15625 C423.511719,483.12498 424.222649,479.953137 425.644531,477.640625 C427.066413,475.296863 429.003894,474.125 431.457031,474.125 C433.972669,474.125 436.003899,475.64061 437.550781,478.671875 C437.519531,478.359373 437.496094,478.085939 437.480469,477.851562 C437.464844,477.617186 437.449219,477.421876 437.433594,477.265625 L437.339844,475.789062 L437.269531,474.664062 L446.855469,474.664062 L446.855469,500 Z M437.339844,487.015625 C437.339844,486.07812 437.304688,485.281253 437.234375,484.625 C437.164062,483.968747 437.050782,483.433596 436.894531,483.019531 C436.73828,482.605467 436.535157,482.308595 436.285156,482.128906 C436.035155,481.949218 435.730471,481.859375 435.371094,481.859375 C433.777336,481.859375 432.980469,483.976541 432.980469,488.210938 C432.980469,491.242203 433.691399,492.757812 435.113281,492.757812 C436.597664,492.757812 437.339844,490.843769 437.339844,487.015625 Z M469.363281,491.726562 L469.363281,500.375 C468.800778,500.4375 468.308596,500.480469 467.886719,500.503906 C467.464842,500.527344 467.113283,500.539062 466.832031,500.539062 C464.019517,500.539062 461.667978,499.695321 459.777344,498.007812 C458.496087,496.867182 457.457035,495.304697 456.660156,493.320312 C455.863277,491.335928 455.464844,489.296885 455.464844,487.203125 C455.464844,483.484356 456.605457,480.3672 458.886719,477.851562 C461.152355,475.367175 464.011701,474.125 467.464844,474.125 C467.66797,474.125 467.92578,474.132812 468.238281,474.148438 C468.550783,474.164063 468.925779,474.1875 469.363281,474.21875 L469.363281,482.46875 C466.582017,482.656251 465.191406,484.171861 465.191406,487.015625 C465.191406,488.296881 465.535153,489.42187 466.222656,490.390625 C466.925785,491.312505 467.761714,491.773438 468.730469,491.773438 C468.824219,491.773438 468.921874,491.769531 469.023438,491.761719 C469.125001,491.753906 469.238281,491.742188 469.363281,491.726562 Z M490.582031,491.421875 L499.769531,491.609375 C499.113278,494.562515 497.835947,496.785149 495.9375,498.277344 C494.039053,499.769539 491.558609,500.515625 488.496094,500.515625 C484.871076,500.515625 482.027354,499.390636 479.964844,497.140625 C477.917959,494.859364 476.894531,491.742207 476.894531,487.789062 C476.894531,483.773417 477.996083,480.500013 480.199219,477.96875 C482.402355,475.421862 485.246076,474.148438 488.730469,474.148438 C492.199236,474.148438 494.964833,475.374988 497.027344,477.828125 C499.089854,480.296887 500.121094,483.570292 500.121094,487.648438 L500.074219,489.3125 L486.292969,489.3125 C486.402344,491.906263 487.136712,493.203125 488.496094,493.203125 C489.558599,493.203125 490.253905,492.609381 490.582031,491.421875 Z M490.792969,484.25 C490.792969,483.781248 490.738282,483.351564 490.628906,482.960938 C490.519531,482.570311 490.367188,482.234376 490.171875,481.953125 C489.976562,481.671874 489.746095,481.44922 489.480469,481.285156 C489.214842,481.121093 488.925783,481.039062 488.613281,481.039062 C487.957028,481.039062 487.425783,481.339841 487.019531,481.941406 C486.613279,482.542972 486.410156,483.312495 486.410156,484.25 L490.792969,484.25 Z M507.839844,497.914062 L511.261719,490.882812 C512.949227,492.648446 514.519524,493.53125 515.972656,493.53125 C517.191412,493.53125 517.800781,493.093754 517.800781,492.21875 C517.800781,491.468746 516.980477,490.796878 515.339844,490.203125 C510.917947,488.640617 508.707031,486.164079 508.707031,482.773438 C508.707031,480.28905 509.691396,478.226571 511.660156,476.585938 C513.644541,474.945304 516.121079,474.125 519.089844,474.125 C521.527356,474.125 524.042956,474.812493 526.636719,476.1875 L523.425781,483.054688 C521.847648,481.570305 520.558599,480.828125 519.558594,480.828125 C518.574214,480.828125 518.082031,481.226559 518.082031,482.023438 C518.082031,482.882817 519.019522,483.687496 520.894531,484.4375 C523.238293,485.35938 524.832027,486.335932 525.675781,487.367188 C526.566411,488.398443 527.011719,489.820303 527.011719,491.632812 C527.011719,494.242201 526.066416,496.374992 524.175781,498.03125 C522.285147,499.687508 519.855484,500.515625 516.886719,500.515625 C515.464837,500.515625 514.050788,500.335939 512.644531,499.976562 C511.988278,499.804687 511.269535,499.542971 510.488281,499.191406 C509.707027,498.839842 508.824224,498.414065 507.839844,497.914062 Z" id="braces" fill="{{{ hex 'second' }}}"></path>
        </g>
    </g>
</svg>