<svg width="339px" height="170px" viewBox="0 0 339 170" version="1.1" xmlns="http://www.w3.org/2000/svg" xmlns:xlink="http://www.w3.org/1999/xlink">
    <g id="Page-1" stroke="none" stroke-width="1" fill="none" fill-rule="evenodd">
        <g id="noun_659416">
            <g transform="translate(169.500000, 85.000000) scale(1, -1) translate(-169.500000, -85.000000) " id="Shape">
                <path d="M19.6804389,169.932992 C23.9629096,169.932992 27.5093306,166.582578 27.7100714,162.294048 C31.6579741,87.3117856 93.6868858,27.8084352 169.5,27.8084352 C245.313114,27.8084352 307.275112,87.3787939 311.289929,162.294048 C311.490669,166.582578 315.03709,169.932992 319.319561,169.932992 L330.895615,169.932992 C335.512653,169.932992 339.192902,166.046512 338.992161,161.42294 C334.575863,71.5648404 260.435589,0 169.566914,0 C78.6313247,0.0670082775 4.42413697,71.5648404 0.00783905165,161.489949 C-0.192901763,166.11352 3.4873465,170 8.10438523,170 L19.6804389,170 L19.6804389,169.932992 Z" fill="{{{ hex 'first' }}}" fill-rule="nonzero"></path>
                <path d="M288.347256,170 C292.168262,170 295.251881,166.788009 294.98374,162.973769 C291.162734,98.6670236 235.188347,45 170.030139,45 C104.87193,45 48.897543,98.6001071 45.0095018,162.973769 C44.8083962,166.788009 47.8249799,170 51.645986,170 L61.2320187,170 C64.7178488,170 67.6003622,167.32334 67.8014678,163.843683 C71.0191571,110.310493 115.530526,67.885439 169.963103,67.885439 C224.395681,67.885439 268.90705,110.310493 272.124739,163.843683 C272.325845,167.32334 275.208358,170 278.694188,170 L288.347256,170 Z" fill="{{{ hex 'second' }}}" fill-rule="nonzero"></path>
                <path d="M249.970881,170 C252.914066,170 255.188346,167.529503 254.987674,164.658385 C252.24516,119.65528 214.786439,84 169.033286,84 C123.280134,84 85.8214124,119.65528 83.0120083,164.658385 C82.8113366,167.529503 85.1525066,170 88.0288013,170 L94.985421,170 C97.5941534,170 99.8015423,167.930124 100.002214,165.326087 C102.209603,128.001553 130.771878,100.959627 169.033286,100.959627 C207.294695,100.959627 235.85697,127.934783 238.064359,165.326087 C238.19814,167.930124 240.405529,170 243.081152,170 L249.970881,170 Z" fill="{{{ hex 'third' }}}" fill-rule="nonzero"></path>
                <path d="M224.777542,170 C226.585602,170 228.125802,168.528258 227.991872,166.655133 C226.250776,136.149942 201.004892,112 170,112 C139.062073,112 113.749224,136.21684 112.008128,166.655133 C111.874198,168.461361 113.414398,170 115.222458,170 L121.115397,170 C122.856492,170 124.262762,168.595156 124.329727,166.855825 C125.735996,141.702422 144.218394,124.309112 170,124.309112 C195.781606,124.309112 214.264004,141.702422 215.670273,166.855825 C215.737238,168.595156 217.143508,170 218.884603,170 L224.777542,170 Z" fill="{{{ hex 'fourth' }}}" fill-rule="nonzero"></path>
                <path d="M141.767026,170 C143.038172,170 144.041708,168.998145 144.10861,167.729128 C144.978342,153.703154 154.411583,145.087199 168.996309,145.087199 C183.581036,145.087199 192.947374,153.703154 193.884008,167.729128 C193.95091,168.998145 194.954446,170 196.225592,170 L202.581322,170 C203.91937,170 205.123614,168.864564 204.989809,167.528757 C203.91937,150.163265 191.408618,134 168.996309,134 C148.189658,134 134.273955,150.096475 133.002809,167.461967 C132.935907,168.797774 134.073248,170 135.411296,170 L141.767026,170 Z" fill="{{{ hex 'fifth' }}}" fill-rule="nonzero"></path>
            </g>
        </g>
    </g>
</svg>